<svg width="131" height="131" viewBox="0 0 131 131" fill="none" xmlns="http://www.w3.org/2000/svg">
<g id="Group 58">
<path id="Vector" d="M65.1 130.2C101.054 130.2 130.2 101.054 130.2 65.0999C130.2 29.1461 101.054 0 65.1 0C29.1463 0 0 29.1461 0 65.0999C0 101.054 29.1463 130.2 65.1 130.2Z" fill="#DC3684"/>
<path id="Vector_2" d="M65.06 28.002C44.59 28.002 28 44.592 28 65.062C28 85.532 44.59 102.122 65.06 102.122C85.53 102.122 102.12 85.532 102.12 65.062C102.12 44.592 85.53 28.002 65.06 28.002ZM65.06 91.7419C50.33 91.7419 38.38 79.802 38.38 65.062C38.38 50.322 50.32 38.3821 65.06 38.3821C79.8 38.3821 91.74 50.322 91.74 65.062C91.74 79.802 79.79 91.7419 65.06 91.7419Z" fill="white"/>
</g>
</svg>
