<svg width="119" height="134" viewBox="0 0 119 134" fill="none" xmlns="http://www.w3.org/2000/svg">
<path d="M34.1282 17.7456C38.8842 17.7456 42.7397 13.8902 42.7397 9.13418C42.7397 4.37816 38.8842 0.522461 34.1282 0.522461C29.3721 0.522461 25.5166 4.37816 25.5166 9.13418C25.5166 13.8902 29.3721 17.7456 34.1282 17.7456Z" fill="#DC3684"/>
<path d="M36.1578 4.4668L32.3384 12.6894" stroke="#F0F0F0" stroke-miterlimit="10"/>
<path d="M27.8249 130.24C32.8375 135.253 40.9951 135.253 46.0077 130.24L114.66 61.5877C119.673 56.5751 119.673 48.4174 114.66 43.4048L90.9589 19.7038C85.9463 14.6912 77.7887 14.6912 72.7761 19.7038L4.1237 88.3563C-0.88889 93.3689 -0.88889 101.526 4.1237 106.539L27.8249 130.24Z" fill="#63356D"/>
<path d="M95.6602 48.7159C98.5912 45.7848 103.357 45.7848 106.282 48.7159C109.213 51.6469 109.213 56.413 106.282 59.3375C103.351 62.2686 98.5848 62.2686 95.6602 59.3375C92.7292 56.413 92.7292 51.6469 95.6602 48.7159ZM85.648 80.3865C82.717 83.3175 77.9508 83.3175 75.0263 80.3865C72.0952 77.4555 72.0952 72.6894 75.0263 69.7648C77.9573 66.8338 82.7235 66.8338 85.648 69.7648C88.5791 72.6894 88.5791 77.4555 85.648 80.3865ZM54.1848 48.9232C57.1158 45.9922 61.882 45.9922 64.8065 48.9232C67.7311 51.8543 67.7376 56.6204 64.8065 59.5449C61.8755 62.4695 57.1093 62.476 54.1848 59.5449C51.2537 56.6204 51.2537 51.8543 54.1848 48.9232ZM54.1848 90.6061C57.1158 87.675 61.882 87.675 64.8065 90.6061C67.7311 93.5371 67.7376 98.3035 64.8065 101.228C61.8755 104.153 57.1093 104.159 54.1848 101.228C51.2537 98.297 51.2537 93.5306 54.1848 90.6061ZM33.3433 69.7648C36.2743 66.8338 41.0405 66.8338 43.965 69.7648C46.8961 72.6959 46.8961 77.462 43.965 80.3865C41.034 83.3175 36.2678 83.3175 33.3433 80.3865C30.4122 77.4555 30.4122 72.6894 33.3433 69.7648ZM33.3433 111.441C36.2743 108.51 41.0405 108.51 43.965 111.441C46.8961 114.372 46.8961 119.138 43.965 122.063C41.034 124.994 36.2678 124.994 33.3433 122.063C30.4122 119.138 30.4122 114.372 33.3433 111.441ZM12.5018 90.6061C15.4328 87.675 20.199 87.675 23.1235 90.6061C26.0481 93.5371 26.0546 98.3035 23.1235 101.228C20.1925 104.153 15.4263 104.159 12.5018 101.228C9.57721 98.297 9.57721 93.5306 12.5018 90.6061Z" fill="#F0F0F0"/>
<path d="M80.1363 40.7072C84.287 40.7072 87.6519 37.3421 87.6519 33.1913C87.6519 29.0405 84.287 25.6758 80.1363 25.6758C75.9855 25.6758 72.6206 29.0405 72.6206 33.1913C72.6206 37.3421 75.9855 40.7072 80.1363 40.7072Z" fill="#82578D"/>
</svg>
