<svg width="132" height="131" viewBox="0 0 132 131" fill="none" xmlns="http://www.w3.org/2000/svg">
<g id="Group 54">
<path id="Vector" d="M66.0401 130.872C101.994 130.872 131.14 101.726 131.14 65.7718C131.14 29.818 101.994 0.671875 66.0401 0.671875C30.0863 0.671875 0.939941 29.818 0.939941 65.7718C0.939941 101.726 30.0863 130.872 66.0401 130.872Z" fill="#DC3684"/>
<path id="Vector_2" d="M102.83 70.6018C102.83 49.8318 85.9901 33.002 65.2301 33.002C44.4601 33.002 27.6301 49.8418 27.6301 70.6018" fill="white"/>
<path id="Vector_3" d="M23 78.1216C23 75.5816 25.07 73.5117 27.61 73.5117H104.2C106.74 73.5117 108.81 75.5816 108.81 78.1216C108.81 80.6616 106.74 82.7317 104.2 82.7317H27.61C25.07 82.7217 23 80.6616 23 78.1216Z" fill="white"/>
</g>
</svg>
