<svg width="131" height="132" viewBox="0 0 131 132" fill="none" xmlns="http://www.w3.org/2000/svg">
<g id="Group 59">
<path id="Vector" d="M65.84 131.12C101.794 131.12 130.94 101.974 130.94 66.0198C130.94 30.0661 101.794 0.919922 65.84 0.919922C29.8863 0.919922 0.73999 30.0661 0.73999 66.0198C0.73999 101.974 29.8863 131.12 65.84 131.12Z" fill="#DC3684"/>
<g id="Group">
<g id="Group_2">
<path id="Vector_2" d="M96.1334 46.3682C96.1334 47.4705 97.0353 48.3723 98.1375 48.3723C99.2398 48.3723 100.142 47.4705 100.142 46.3682C100.142 38.9801 93.2456 31 82.1042 31C74.4975 31 68.8767 34.7168 66.0709 39.4266C63.2651 34.7168 57.6442 31 50.0375 31C38.8962 31 32 38.9801 32 46.3682C32 47.4705 32.9019 48.3723 34.0042 48.3723C35.1065 48.3723 36.0084 47.4705 36.0084 46.3682C36.0084 41.6038 40.8821 35.0082 50.0375 35.0082C58.5826 35.0082 63.3926 40.7565 64.0029 45.3934C64.0485 45.3752 64.0849 45.3663 64.1305 45.3571C64.75 45.1658 65.3967 45.0291 66.08 45.0291C66.7632 45.0291 67.41 45.1658 68.0295 45.3571C68.075 45.3663 68.1115 45.3843 68.157 45.3934C68.7583 40.7565 73.5774 35.0082 82.1225 35.0082C91.2596 35.0082 96.1334 41.6038 96.1334 46.3682Z" fill="white"/>
<path id="Vector_3" d="M70.0792 88.4649V96.9918C70.0792 98.7773 68.904 100.262 67.2915 100.791C66.8998 100.918 66.499 101 66.0709 101C65.6427 101 65.2327 100.918 64.8501 100.791C63.2377 100.271 62.0625 98.7773 62.0625 96.9918V92.4733V89.5309V74.2354V70.9193V63.2215V60.2334V51.7067C62.0625 49.9212 63.2377 48.4361 64.8501 47.9078C65.2418 47.7802 65.6427 47.6982 66.0709 47.6982C66.499 47.6982 66.9089 47.7802 67.2915 47.9078C68.904 48.427 70.0792 49.9212 70.0792 51.7067V56.2252V59.2132V66.911V70.2269V77.9249V88.4649Z" fill="white"/>
</g>
</g>
</g>
</svg>
