<svg width="132" height="131" viewBox="0 0 132 131" fill="none" xmlns="http://www.w3.org/2000/svg">
<g id="Group 52">
<path id="Vector" d="M66.0399 130.72C101.994 130.72 131.14 101.573 131.14 65.6195C131.14 29.6658 101.994 0.519531 66.0399 0.519531C30.0863 0.519531 0.939941 29.6658 0.939941 65.6195C0.939941 101.573 30.0863 130.72 66.0399 130.72Z" fill="#DC3684"/>
<g id="Group 12">
<g id="Group">
<path id="Vector_2" d="M65.82 106.78C66.76 106.78 67.52 106.02 67.52 105.09V92.2998C69.76 94.0698 72.83 95.36 73.14 101.74C73.19 102.68 73.98 103.4 74.92 103.35C75.85 103.31 76.58 102.51 76.53 101.58C76.05 91.7398 70.01 89.63 67.52 88.23V85.75C66.98 85.92 66.42 86.04 65.82 86.04C65.23 86.04 64.66 85.92 64.13 85.75V89.27V105.08C64.12 106.02 64.88 106.78 65.82 106.78Z" fill="white"/>
<path id="Vector_3" d="M91.2401 44C91.2401 44.94 92.0001 45.6899 92.9401 45.6899C93.8801 45.6899 94.64 44.93 94.64 44C94.64 37.75 88.81 31 79.38 31C72.95 31 68.1901 34.1499 65.8201 38.1299C63.4501 34.1499 58.69 31 52.26 31C42.84 31 37 37.75 37 44C37 44.94 37.7601 45.6899 38.7001 45.6899C39.6401 45.6899 40.4 44.93 40.4 44C40.4 39.97 44.52 34.3899 52.27 34.3899C59.5 34.3899 63.5701 39.2499 64.0801 43.1699C64.1201 43.1599 64.1501 43.1499 64.1901 43.1399C64.7101 42.9799 65.2601 42.8699 65.8401 42.8699C66.4201 42.8699 66.9601 42.9799 67.4901 43.1399C67.5301 43.1499 67.5601 43.1599 67.6001 43.1699C68.1101 39.2499 72.18 34.3899 79.41 34.3899C87.12 34.3899 91.2401 39.97 91.2401 44Z" fill="white"/>
<path id="Vector_4" d="M62.4302 64.7703L69.2102 61.3801V54.8701L62.4302 58.2603V64.7703Z" fill="white"/>
<path id="Vector_5" d="M69.2102 48.52C69.2102 47.01 68.2202 45.7498 66.8602 45.3098C66.5302 45.1998 66.1902 45.1299 65.8202 45.1299C65.4602 45.1299 65.1102 45.1998 64.7802 45.3098C63.4202 45.7498 62.4302 47.01 62.4302 48.52V55.73L69.2102 52.3398V48.52Z" fill="white"/>
<path id="Vector_6" d="M62.4302 74.0796L69.2102 70.6897V64.1797L62.4302 67.5696V74.0796Z" fill="white"/>
<path id="Vector_7" d="M62.4302 80.3896C62.4302 81.8996 63.4202 83.1596 64.7802 83.5996C65.1102 83.7096 65.4502 83.7798 65.8202 83.7798C66.1802 83.7798 66.5302 83.7096 66.8602 83.5996C68.2202 83.1596 69.2102 81.8996 69.2102 80.3896V73.1797L62.4302 76.5696V80.3896Z" fill="white"/>
</g>
<path id="Vector_8" d="M65.82 106.78C66.76 106.78 67.52 106.02 67.52 105.09V92.2998C69.76 94.0698 72.83 95.36 73.14 101.74C73.19 102.68 73.98 103.4 74.92 103.35C75.85 103.31 76.58 102.51 76.53 101.58C76.05 91.7398 70.01 89.63 67.52 88.23V85.75C66.98 85.92 66.42 86.04 65.82 86.04C65.23 86.04 64.66 85.92 64.13 85.75V89.27V105.08C64.12 106.02 64.88 106.78 65.82 106.78Z" fill="white"/>
<path id="Vector_9" d="M62.4302 64.7703L69.2102 61.3801V54.8701L62.4302 58.2603V64.7703Z" fill="white"/>
<path id="Vector_10" d="M69.2102 48.52C69.2102 47.01 68.2202 45.7498 66.8602 45.3098C66.5302 45.1998 66.1902 45.1299 65.8202 45.1299C65.4602 45.1299 65.1102 45.1998 64.7802 45.3098C63.4202 45.7498 62.4302 47.01 62.4302 48.52V55.73L69.2102 52.3398V48.52Z" fill="white"/>
<path id="Vector_11" d="M62.4302 74.0796L69.2102 70.6897V64.1797L62.4302 67.5696V74.0796Z" fill="white"/>
</g>
</g>
</svg>
