<svg width="229" height="236" viewBox="0 0 229 236" fill="none" xmlns="http://www.w3.org/2000/svg">
<path d="M115.095 224.698C170.324 224.698 215.095 179.927 215.095 124.698C215.095 69.4696 170.324 24.6982 115.095 24.6982C59.8666 24.6982 15.095 69.4696 15.095 124.698C15.095 179.927 59.8666 224.698 115.095 224.698Z" fill="#FFE8F4"/>
<path d="M215.408 51.6236C215.408 55.3381 218.415 58.3645 222.148 58.3645C225.881 58.3645 228.889 55.3563 228.889 51.6236C228.889 26.7995 205.714 0 168.296 0C142.747 0 123.867 12.4852 114.444 28.3218C105.022 12.5033 86.1413 0 60.5924 0C23.157 0 0 26.7995 0 51.6236C0 55.3381 3.00794 58.3645 6.7406 58.3645C10.4552 58.3645 13.4811 55.3563 13.4811 51.6236C13.4811 35.6239 29.8614 13.4819 60.6106 13.4819C89.3123 13.4819 105.475 32.7794 107.504 48.3624C107.649 48.308 107.776 48.2712 107.921 48.235C110.005 47.6008 112.161 47.1476 114.462 47.1476C116.746 47.1476 118.92 47.6008 121.004 48.235C121.149 48.2712 121.294 48.308 121.42 48.3624C123.45 32.7794 139.613 13.4819 168.314 13.4819C199.027 13.4819 215.408 35.6239 215.408 51.6236Z" fill="#63356D"/>
<path d="M127.871 193.068V221.716C127.871 227.695 123.921 232.714 118.521 234.472C117.217 234.889 115.858 235.178 114.408 235.178C112.959 235.178 111.599 234.889 110.295 234.472C104.877 232.714 100.945 227.713 100.945 221.716V206.549V196.674V145.286V134.143V108.286V98.2474V69.6C100.945 63.6205 104.895 58.6013 110.295 56.8436C111.599 56.4269 112.959 56.1367 114.408 56.1367C115.858 56.1367 117.217 56.4269 118.521 56.8436C123.939 58.6013 127.871 63.6024 127.871 69.6V84.7665V94.8049V120.662V131.805V157.662V193.068Z" fill="#63356D"/>
</svg>
