<svg width="69" height="70" viewBox="0 0 69 70" fill="none" xmlns="http://www.w3.org/2000/svg">
<path d="M64.1334 15.3682C64.1334 16.4705 65.0353 17.3723 66.1375 17.3723C67.2398 17.3723 68.1417 16.4705 68.1417 15.3682C68.1417 7.98012 61.2456 0 50.1042 0C42.4975 0 36.8767 3.71682 34.0709 8.42662C31.2651 3.71682 25.6442 0 18.0375 0C6.89615 0 0 7.98012 0 15.3682C0 16.4705 0.901887 17.3723 2.00418 17.3723C3.10647 17.3723 4.00836 16.4705 4.00836 15.3682C4.00836 10.6038 8.8821 4.00825 18.0375 4.00825C26.5826 4.00825 31.3926 9.75648 32.0029 14.3934C32.0485 14.3752 32.0849 14.3663 32.1305 14.3571C32.75 14.1658 33.3967 14.0291 34.08 14.0291C34.7632 14.0291 35.41 14.1658 36.0295 14.3571C36.075 14.3663 36.1115 14.3843 36.157 14.3934C36.7583 9.75648 41.5774 4.00825 50.1225 4.00825C59.2596 4.00825 64.1334 10.6038 64.1334 15.3682Z" fill="white"/>
<path d="M38.0792 57.4649V65.9918C38.0792 67.7773 36.904 69.2621 35.2915 69.7905C34.8998 69.9181 34.499 70 34.0709 70C33.6427 70 33.2327 69.9181 32.8501 69.7905C31.2377 69.2713 30.0625 67.7773 30.0625 65.9918V61.4733V58.5309V43.2354V39.9193V32.2215V29.2334V20.7067C30.0625 18.9212 31.2377 17.4361 32.8501 16.9078C33.2418 16.7802 33.6427 16.6982 34.0709 16.6982C34.499 16.6982 34.9089 16.7802 35.2915 16.9078C36.904 17.427 38.0792 18.9212 38.0792 20.7067V25.2252V28.2132V35.911V39.2269V46.9249V57.4649Z" fill="white"/>
</svg>
