<svg width="98" height="101" viewBox="0 0 98 101" fill="none" xmlns="http://www.w3.org/2000/svg">
<path d="M92.2703 22.2326C92.2703 23.8086 93.5465 25.0926 95.1301 25.0926C96.7138 25.0926 97.99 23.8163 97.99 22.2326C97.99 11.7004 88.1574 0.330078 72.2822 0.330078C61.4426 0.330078 53.432 5.62721 49.4343 12.3463C45.4367 5.63489 37.4261 0.330078 26.5864 0.330078C10.7036 0.330078 0.878662 11.7004 0.878662 22.2326C0.878662 23.8086 2.15485 25.0926 3.73852 25.0926C5.3145 25.0926 6.59833 23.8163 6.59833 22.2326C6.59833 15.4443 13.548 6.05008 26.5941 6.05008C38.7715 6.05008 45.6289 14.2375 46.4899 20.8489C46.5514 20.8259 46.6052 20.8103 46.6667 20.7949C47.5508 20.5258 48.4657 20.3336 49.442 20.3336C50.4107 20.3336 51.3332 20.5258 52.2173 20.7949C52.2788 20.8103 52.3403 20.8259 52.3941 20.8489C53.2551 14.2375 60.1126 6.05008 72.2899 6.05008C85.3206 6.05008 92.2703 15.4443 92.2703 22.2326Z" fill="#63356D"/>
<path d="M55.131 82.2438V94.3982C55.131 96.9351 53.4551 99.0646 51.1641 99.8103C50.6106 99.9872 50.034 100.11 49.419 100.11C48.804 100.11 48.2274 99.9872 47.6739 99.8103C45.3752 99.0646 43.707 96.9428 43.707 94.3982V87.9635V83.7735V61.9712V57.2433V46.2729V42.0139V29.8596C43.707 27.3226 45.3829 25.1931 47.6739 24.4474C48.2274 24.2706 48.804 24.1475 49.419 24.1475C50.034 24.1475 50.6106 24.2706 51.1641 24.4474C53.4628 25.1931 55.131 27.3149 55.131 29.8596V36.2943V40.5533V51.5237V56.2516V67.222V82.2438Z" fill="#63356D"/>
</svg>
