<svg width="58" height="76" viewBox="0 0 58 76" fill="none" xmlns="http://www.w3.org/2000/svg">
<path d="M28.82 75.78C29.76 75.78 30.52 75.0198 30.52 74.0898V61.2998C32.76 63.0698 35.83 64.36 36.14 70.74C36.19 71.68 36.98 72.3999 37.92 72.3499C38.85 72.3099 39.58 71.5098 39.53 70.5798C39.05 60.7398 33.01 58.63 30.52 57.23V54.75C29.98 54.92 29.42 55.04 28.82 55.04C28.23 55.04 27.66 54.92 27.13 54.75V58.27V74.0798C27.12 75.0198 27.88 75.78 28.82 75.78Z" fill="white"/>
<path d="M54.2401 13C54.2401 13.94 55.0001 14.6899 55.9401 14.6899C56.8801 14.6899 57.64 13.93 57.64 13C57.64 6.75 51.81 0 42.38 0C35.95 0 31.1901 3.14988 28.8201 7.12988C26.4501 3.14988 21.69 0 15.26 0C5.84001 0 0 6.75 0 13C0 13.94 0.760073 14.6899 1.70007 14.6899C2.64007 14.6899 3.40002 13.93 3.40002 13C3.40002 8.97 7.52002 3.38989 15.27 3.38989C22.5 3.38989 26.5701 8.24992 27.0801 12.1699C27.1201 12.1599 27.1501 12.1499 27.1901 12.1399C27.7101 11.9799 28.2601 11.8699 28.8401 11.8699C29.4201 11.8699 29.9601 11.9799 30.4901 12.1399C30.5301 12.1499 30.5601 12.1599 30.6001 12.1699C31.1101 8.24992 35.18 3.38989 42.41 3.38989C50.12 3.38989 54.2401 8.97 54.2401 13Z" fill="white"/>
<path d="M25.4302 33.7703L32.2102 30.3801V23.8701L25.4302 27.2603V33.7703Z" fill="white"/>
<path d="M32.2102 17.52C32.2102 16.01 31.2202 14.7498 29.8602 14.3098C29.5302 14.1998 29.1902 14.1299 28.8202 14.1299C28.4602 14.1299 28.1102 14.1998 27.7802 14.3098C26.4202 14.7498 25.4302 16.01 25.4302 17.52V24.73L32.2102 21.3398V17.52Z" fill="white"/>
<path d="M25.4302 43.0796L32.2102 39.6897V33.1797L25.4302 36.5696V43.0796Z" fill="white"/>
<path d="M25.4302 49.3896C25.4302 50.8996 26.4202 52.1596 27.7802 52.5996C28.1102 52.7096 28.4502 52.7798 28.8202 52.7798C29.1802 52.7798 29.5302 52.7096 29.8602 52.5996C31.2202 52.1596 32.2102 50.8996 32.2102 49.3896V42.1797L25.4302 45.5696V49.3896Z" fill="white"/>
<path d="M28.82 75.78C29.76 75.78 30.52 75.0198 30.52 74.0898V61.2998C32.76 63.0698 35.83 64.36 36.14 70.74C36.19 71.68 36.98 72.3999 37.92 72.3499C38.85 72.3099 39.58 71.5098 39.53 70.5798C39.05 60.7398 33.01 58.63 30.52 57.23V54.75C29.98 54.92 29.42 55.04 28.82 55.04C28.23 55.04 27.66 54.92 27.13 54.75V58.27V74.0798C27.12 75.0198 27.88 75.78 28.82 75.78Z" fill="white"/>
<path d="M25.4302 33.7703L32.2102 30.3801V23.8701L25.4302 27.2603V33.7703Z" fill="white"/>
<path d="M32.2102 17.52C32.2102 16.01 31.2202 14.7498 29.8602 14.3098C29.5302 14.1998 29.1902 14.1299 28.8202 14.1299C28.4602 14.1299 28.1102 14.1998 27.7802 14.3098C26.4202 14.7498 25.4302 16.01 25.4302 17.52V24.73L32.2102 21.3398V17.52Z" fill="white"/>
<path d="M25.4302 43.0796L32.2102 39.6897V33.1797L25.4302 36.5696V43.0796Z" fill="white"/>
</svg>
