<svg width="131" height="131" viewBox="0 0 131 131" fill="none" xmlns="http://www.w3.org/2000/svg">
<g id="Group 53">
<path id="Vector" d="M65.4999 130.753C101.454 130.753 130.6 101.607 130.6 65.6528C130.6 29.6991 101.454 0.552734 65.4999 0.552734C29.5462 0.552734 0.399902 29.6991 0.399902 65.6528C0.399902 101.607 29.5462 130.753 65.4999 130.753Z" fill="#DC3684"/>
<path id="Vector_2" d="M64.8899 28.002C43.9699 28.002 27 44.9618 27 65.8918C27 86.8118 43.9599 103.782 64.8899 103.782C85.8099 103.782 102.78 86.8218 102.78 65.8918C102.78 44.9618 85.8199 28.002 64.8899 28.002ZM64.8899 85.5818C53.5699 85.5818 44.3999 76.4018 44.3999 65.0918C44.3999 64.3418 44.4399 63.6118 44.5199 62.8918C45.6199 73.1718 54.3199 81.1819 64.8899 81.1819C75.4599 81.1819 84.1599 73.1718 85.2599 62.8918C85.3399 63.6118 85.38 64.3518 85.38 65.0918C85.39 76.4018 76.2099 85.5818 64.8899 85.5818Z" fill="white"/>
</g>
</svg>
