<svg width="76" height="76" viewBox="0 0 76 76" fill="none" xmlns="http://www.w3.org/2000/svg">
<path d="M37.8899 0.00195312C16.9699 0.00195312 0 16.9618 0 37.8918C0 58.8118 16.9599 75.782 37.8899 75.782C58.8099 75.782 75.7799 58.8218 75.7799 37.8918C75.7799 16.9618 58.8199 0.00195312 37.8899 0.00195312ZM37.8899 57.5818C26.5699 57.5818 17.3999 48.4018 17.3999 37.0918C17.3999 36.3418 17.4399 35.6118 17.5199 34.8918C18.6199 45.1718 27.3199 53.1819 37.8899 53.1819C48.4599 53.1819 57.1599 45.1718 58.2599 34.8918C58.3399 35.6118 58.38 36.3518 58.38 37.0918C58.39 48.4018 49.2099 57.5818 37.8899 57.5818Z" fill="white"/>
</svg>
