<svg width="131" height="131" viewBox="0 0 131 131" fill="none" xmlns="http://www.w3.org/2000/svg">
<g id="Group 55">
<path id="Vector" d="M65.1001 130.202C101.054 130.202 130.2 101.056 130.2 65.1018C130.2 29.1481 101.054 0.00195312 65.1001 0.00195312C29.1463 0.00195312 0 29.1481 0 65.1018C0 101.056 29.1463 130.202 65.1001 130.202Z" fill="#DC3684"/>
<g id="Group 14">
<path id="Vector_2" d="M80.5777 90.7495L90.5977 80.5896L46.1477 36.0596C43.3377 33.2896 38.8277 33.3197 36.0577 36.1297C33.2877 38.9397 33.3176 43.4495 36.1276 46.2195L80.5777 90.7495Z" fill="white"/>
<path id="Vector_3" d="M94.0077 94.0601C96.2077 91.8301 96.1877 88.23 93.9477 86.02L92.1477 84.25L84.1677 92.3401L85.9677 94.1101C88.2077 96.3201 91.8077 96.2901 94.0077 94.0601Z" fill="white"/>
</g>
</g>
</svg>
