<svg width="200" height="214" viewBox="0 0 200 214" fill="none" xmlns="http://www.w3.org/2000/svg">
<path d="M100 201C155.229 201 200 156.228 200 101C200 45.7713 155.229 1 100 1C44.7716 1 0 45.7713 0 101C0 156.228 44.7716 201 100 201Z" fill="#FFE8F4"/>
<path d="M113.786 190.091L150.203 172.575L74.2531 11.4487C69.426 1.38722 57.3482 -2.82912 47.2867 1.99796C37.2252 6.82504 33.0091 18.9034 37.8361 28.9649L113.786 190.091Z" fill="#63356D"/>
<path d="M146.456 211.743C154.46 207.893 157.841 198.28 153.992 190.275L150.896 183.84L121.892 197.791L124.988 204.227C128.817 212.211 138.431 215.592 146.456 211.743Z" fill="#63356D"/>
</svg>
