<svg width="131" height="131" viewBox="0 0 131 131" fill="none" xmlns="http://www.w3.org/2000/svg">
<g id="Group 56">
<path id="Vector" d="M65.0999 130.202C101.054 130.202 130.2 101.056 130.2 65.102C130.2 29.1483 101.054 0.00195312 65.0999 0.00195312C29.1462 0.00195312 0 29.1483 0 65.102C0 101.056 29.1462 130.202 65.0999 130.202Z" fill="#DC3684"/>
<g id="Group 13">
<path id="Vector_2" d="M52.2686 39.8164L41.8772 48.2842L73.1316 86.6385L83.523 78.1706L52.2686 39.8164Z" fill="white"/>
<path id="Vector_3" d="M71.5136 96.0378L92.0765 79.2796C92.8937 78.6126 93.0253 77.4007 92.3489 76.5835C91.682 75.7662 90.4701 75.6347 89.6529 76.311L69.0901 93.0695C68.2728 93.7365 68.1413 94.9481 68.8176 95.7654C69.4846 96.5826 70.6964 96.7048 71.5136 96.0378Z" fill="white"/>
<g id="Group">
<path id="Vector_4" d="M86.4027 102.538L96.4821 94.3183C97.2994 93.6513 97.4309 92.4394 96.7545 91.6128C96.0876 90.7955 94.8758 90.664 94.0585 91.3403L83.9791 99.5598C83.1618 100.227 83.0303 101.439 83.7067 102.256C84.3736 103.092 85.5854 103.214 86.4027 102.538Z" fill="white"/>
</g>
<path id="Vector_5" d="M85.4802 87.3455L81.5552 90.5439L87.7502 98.1463L91.6753 94.9479L85.4802 87.3455Z" fill="white"/>
<path id="Vector_6" d="M33.3282 27.2016C33.7133 26.8916 34.277 26.9481 34.587 27.3332L48.1045 43.9224L46.7142 45.0496L33.1967 28.4604C32.8867 28.0753 32.9524 27.5116 33.3282 27.2016Z" fill="white"/>
</g>
</g>
</svg>
