<svg width="200" height="229" viewBox="0 0 200 229" fill="none" xmlns="http://www.w3.org/2000/svg">
<path d="M100 218.698C155.229 218.698 200 173.927 200 118.698C200 63.4696 155.229 18.6982 100 18.6982C44.7716 18.6982 0 63.4696 0 118.698C0 173.927 44.7716 218.698 100 218.698Z" fill="#FFE8F4"/>
<path d="M61.4953 38.8295L30.275 64.2705L124.165 179.489L155.385 154.048L61.4953 38.8295Z" fill="#63356D"/>
<path d="M118.348 208.415L181.81 156.695C183.816 155.067 184.112 152.124 182.484 150.117L181.102 148.423C179.474 146.417 176.531 146.121 174.524 147.749L111.063 199.469C109.057 201.097 108.761 204.04 110.389 206.047L111.77 207.741C113.415 209.747 116.358 210.059 118.348 208.415Z" fill="#63356D"/>
<path d="M163.078 227.95L195.064 201.885C197.07 200.257 197.366 197.313 195.738 195.307L194.357 193.613C192.729 191.606 189.785 191.311 187.779 192.939L155.793 219.004C153.787 220.632 153.491 223.575 155.119 225.582L156.5 227.276C158.145 229.282 161.072 229.579 163.078 227.95Z" fill="#63356D"/>
<path d="M161.243 181.608L149.45 191.217L168.056 214.049L179.848 204.44L161.243 181.608Z" fill="#63356D"/>
<path d="M4.08763 1.24102L4.87716 0.600241C5.81453 -0.156231 7.17944 -0.0247671 7.93592 0.912601L48.8677 51.1359L44.6906 54.5397L3.75881 4.31644C3.01878 3.37907 3.16671 2.01394 4.08763 1.24102Z" fill="#63356D"/>
</svg>
