<svg width="65" height="76" viewBox="0 0 65 76" fill="none" xmlns="http://www.w3.org/2000/svg">
<path d="M19.2686 12.8164L8.8772 21.2842L40.1316 59.6385L50.523 51.1706L19.2686 12.8164Z" fill="white"/>
<path d="M38.5136 69.0378L59.0765 52.2796C59.8937 51.6126 60.0253 50.4007 59.3489 49.5835C58.682 48.7662 57.4701 48.6347 56.6529 49.311L36.0901 66.0695C35.2728 66.7365 35.1413 67.9481 35.8176 68.7654C36.4846 69.5826 37.6964 69.7048 38.5136 69.0378Z" fill="white"/>
<path d="M53.4027 75.5378L63.4821 67.3183C64.2994 66.6513 64.4309 65.4394 63.7545 64.6128C63.0876 63.7955 61.8758 63.664 61.0585 64.3403L50.9791 72.5598C50.1618 73.2268 50.0303 74.4387 50.7067 75.2559C51.3736 76.092 52.5854 76.2141 53.4027 75.5378Z" fill="white"/>
<path d="M52.4802 60.3455L48.5552 63.5439L54.7502 71.1463L58.6753 67.9479L52.4802 60.3455Z" fill="white"/>
<path d="M0.328196 0.20157C0.713338 -0.108422 1.27696 -0.0519317 1.58695 0.333211L15.1045 16.9224L13.7142 18.0496L0.196699 1.46041C-0.113294 1.07527 -0.0475527 0.511563 0.328196 0.20157Z" fill="white"/>
</svg>
