<svg width="105" height="124" viewBox="0 0 105 124" fill="none" xmlns="http://www.w3.org/2000/svg">
<g id="Group">
<path id="Vector" d="M32.0226 20.8251L15.2305 34.5088L65.7297 96.4797L82.5218 82.7961L32.0226 20.8251Z" fill="#63356D"/>
<path id="Vector_2" d="M62.6012 112.038L96.7344 84.2203C97.8135 83.3446 97.9727 81.7614 97.0971 80.6822L96.354 79.771C95.4783 78.6919 93.8951 78.5329 92.816 79.4086L58.6828 107.226C57.6037 108.102 57.4444 109.685 58.3201 110.764L59.0632 111.675C59.9477 112.755 61.5309 112.922 62.6012 112.038Z" fill="#63356D"/>
<g id="Group_2">
<g id="Group_3">
<path id="Vector_3" d="M86.6597 122.546L103.863 108.526C104.943 107.65 105.102 106.067 104.226 104.988L103.483 104.077C102.607 102.998 101.024 102.839 99.9451 103.714L82.7413 117.733C81.6622 118.609 81.5031 120.192 82.3787 121.271L83.1217 122.183C84.0062 123.262 85.5806 123.421 86.6597 122.546Z" fill="#63356D"/>
</g>
<path id="Vector_4" d="M85.6725 97.6197L79.3301 102.788L89.3373 115.069L95.6797 109.9L85.6725 97.6197Z" fill="#63356D"/>
</g>
<path id="Vector_5" d="M1.1454 0.608139L1.57006 0.263491C2.07423 -0.143384 2.80836 -0.0726746 3.21523 0.431496L25.2307 27.4445L22.984 29.2752L0.968544 2.26227C0.570515 1.7581 0.650077 1.02386 1.1454 0.608139Z" fill="#63356D"/>
</g>
</svg>
