<svg width="119" height="119" viewBox="0 0 119 119" fill="none" xmlns="http://www.w3.org/2000/svg">
<g id="Group">
<path id="Vector" d="M27.8249 115.24C32.8375 120.253 40.9951 120.253 46.0077 115.24L114.66 46.5877C119.673 41.5751 119.673 33.4174 114.66 28.4048L90.9589 4.70378C85.9463 -0.308812 77.7887 -0.308812 72.7761 4.70378L4.1237 73.3563C-0.88889 78.3689 -0.88889 86.5265 4.1237 91.5391L27.8249 115.24Z" fill="#63356D"/>
<path id="Vector_2" d="M95.6602 33.7159C98.5912 30.7848 103.357 30.7848 106.282 33.7159C109.213 36.6469 109.213 41.413 106.282 44.3375C103.351 47.2686 98.5848 47.2686 95.6602 44.3375C92.7292 41.413 92.7292 36.6469 95.6602 33.7159ZM85.648 65.3865C82.717 68.3175 77.9508 68.3175 75.0263 65.3865C72.0952 62.4555 72.0952 57.6894 75.0263 54.7648C77.9573 51.8338 82.7235 51.8338 85.648 54.7648C88.5791 57.6894 88.5791 62.4555 85.648 65.3865ZM54.1848 33.9232C57.1158 30.9922 61.882 30.9922 64.8065 33.9232C67.7311 36.8543 67.7376 41.6204 64.8065 44.5449C61.8755 47.4695 57.1093 47.476 54.1848 44.5449C51.2537 41.6204 51.2537 36.8543 54.1848 33.9232ZM54.1848 75.6061C57.1158 72.675 61.882 72.675 64.8065 75.6061C67.7311 78.5371 67.7376 83.3035 64.8065 86.2281C61.8755 89.1526 57.1093 89.1591 54.1848 86.2281C51.2537 83.297 51.2537 78.5306 54.1848 75.6061ZM33.3433 54.7648C36.2743 51.8338 41.0405 51.8338 43.965 54.7648C46.8961 57.6959 46.8961 62.462 43.965 65.3865C41.034 68.3175 36.2678 68.3175 33.3433 65.3865C30.4122 62.4555 30.4122 57.6894 33.3433 54.7648ZM33.3433 96.4413C36.2743 93.5103 41.0405 93.5103 43.965 96.4413C46.8961 99.3724 46.8961 104.138 43.965 107.063C41.034 109.994 36.2678 109.994 33.3433 107.063C30.4122 104.138 30.4122 99.3724 33.3433 96.4413ZM12.5018 75.6061C15.4328 72.675 20.199 72.675 23.1235 75.6061C26.0481 78.5371 26.0546 83.3035 23.1235 86.2281C20.1925 89.1526 15.4263 89.1591 12.5018 86.2281C9.57721 83.297 9.57721 78.5306 12.5018 75.6061Z" fill="#F0F0F0"/>
<path id="Vector_3" d="M80.1363 25.7072C84.287 25.7072 87.6519 22.3421 87.6519 18.1913C87.6519 14.0405 84.287 10.6758 80.1363 10.6758C75.9855 10.6758 72.6206 14.0405 72.6206 18.1913C72.6206 22.3421 75.9855 25.7072 80.1363 25.7072Z" fill="#82578D"/>
</g>
</svg>
