<svg width="234" height="263" viewBox="0 0 234 263" fill="none" xmlns="http://www.w3.org/2000/svg">
<path d="M117 238C172.229 238 217 193.228 217 138C217 82.7713 172.229 38 117 38C61.7716 38 17 82.7713 17 138C17 193.228 61.7716 238 117 238Z" fill="#FFE8F4"/>
<path d="M67.248 34.1877C76.6089 34.1877 84.1973 26.5996 84.1973 17.2387C84.1973 7.87787 76.6089 0.289062 67.248 0.289062C57.8872 0.289062 50.2987 7.87787 50.2987 17.2387C50.2987 26.5996 57.8872 34.1877 67.248 34.1877Z" fill="#DC3684"/>
<path d="M71.2429 8.05273L63.7255 24.2365" stroke="#F0F0F0" stroke-miterlimit="10"/>
<path d="M54.8419 255.601C64.7077 265.466 80.7636 265.466 90.6295 255.601L225.752 120.478C235.617 110.612 235.617 94.5564 225.752 84.6906L179.103 38.0419C169.237 28.1761 153.181 28.1761 143.315 38.0419L8.19301 173.164C-1.67282 183.03 -1.67282 199.086 8.19301 208.952L54.8419 255.601Z" fill="#63356D"/>
<path d="M188.356 95.1441C194.125 89.3752 203.506 89.3752 209.262 95.1441C215.031 100.913 215.031 110.294 209.262 116.05C203.493 121.819 194.112 121.819 188.356 116.05C182.587 110.294 182.587 100.913 188.356 95.1441ZM168.65 157.478C162.881 163.247 153.5 163.247 147.744 157.478C141.975 151.71 141.975 142.329 147.744 136.573C153.513 130.804 162.894 130.804 168.65 136.573C174.419 142.329 174.419 151.71 168.65 157.478ZM106.724 95.5522C112.492 89.7834 121.873 89.7834 127.629 95.5522C133.386 101.321 133.398 110.702 127.629 116.458C121.861 122.214 112.48 122.227 106.724 116.458C100.955 110.702 100.955 101.321 106.724 95.5522ZM106.724 177.593C112.492 171.824 121.873 171.824 127.629 177.593C133.386 183.362 133.398 192.743 127.629 198.499C121.861 204.255 112.48 204.268 106.724 198.499C100.955 192.73 100.955 183.349 106.724 177.593ZM65.7032 136.573C71.472 130.804 80.8529 130.804 86.609 136.573C92.3779 142.342 92.3779 151.722 86.609 157.478C80.8401 163.247 71.4593 163.247 65.7032 157.478C59.9343 151.71 59.9343 142.329 65.7032 136.573ZM65.7032 218.601C71.472 212.832 80.8529 212.832 86.609 218.601C92.3779 224.37 92.3779 233.75 86.609 239.507C80.8401 245.275 71.4593 245.275 65.7032 239.507C59.9343 233.75 59.9343 224.37 65.7032 218.601ZM24.6828 177.593C30.4516 171.824 39.8325 171.824 45.5886 177.593C51.3447 183.362 51.3575 192.743 45.5886 198.499C39.8197 204.255 30.4389 204.268 24.6828 198.499C18.9266 192.73 18.9266 183.349 24.6828 177.593Z" fill="#F0F0F0"/>
<path d="M157.801 79.3818C165.971 79.3818 172.594 72.7586 172.594 64.589C172.594 56.4194 165.971 49.7969 157.801 49.7969C149.632 49.7969 143.009 56.4194 143.009 64.589C143.009 72.7586 149.632 79.3818 157.801 79.3818Z" fill="#82578D"/>
</svg>
