<svg width="131" height="131" viewBox="0 0 131 131" fill="none" xmlns="http://www.w3.org/2000/svg">
<path d="M65.38 130.69C101.334 130.69 130.48 101.544 130.48 65.5903C130.48 29.6366 101.334 0.490234 65.38 0.490234C29.4263 0.490234 0.280029 29.6366 0.280029 65.5903C0.280029 101.544 29.4263 130.69 65.38 130.69Z" fill="#DC3684"/>
<path d="M65.08 37C49.02 37 36 50.0201 36 66.0801C36 82.1401 49.02 95.1599 65.08 95.1599C81.14 95.1599 94.16 82.1401 94.16 66.0801C94.16 50.0201 81.14 37 65.08 37ZM65.64 77.78H63.36V51.3501H65.64V77.78Z" fill="white"/>
</svg>
