<svg width="131" height="131" viewBox="0 0 131 131" fill="none" xmlns="http://www.w3.org/2000/svg">
<g id="Group 51">
<path id="Vector" d="M65.4998 130.46C101.453 130.46 130.6 101.313 130.6 65.3598C130.6 29.4061 101.453 0.259766 65.4998 0.259766C29.5461 0.259766 0.399902 29.4061 0.399902 65.3598C0.399902 101.313 29.5461 130.46 65.4998 130.46Z" fill="#DC3684"/>
<path id="Vector_2" d="M82.0801 90.2679H49.6501V45.9478C49.6501 40.2578 52.5901 35.0778 57.3901 32.1378V30.7179C57.3901 26.3079 60.6602 22.4479 65.0402 22.0379C70.0802 21.5679 74.3301 25.5279 74.3301 30.4679V32.1378C79.1401 35.0778 82.0701 40.2678 82.0701 45.9478V90.2679H82.0801Z" fill="white"/>
</g>
</svg>
