<svg width="132" height="131" viewBox="0 0 132 131" fill="none" xmlns="http://www.w3.org/2000/svg">
<g id="Group 50">
<path id="Vector" d="M66.0401 130.319C101.994 130.319 131.14 101.173 131.14 65.2192C131.14 29.2655 101.994 0.119141 66.0401 0.119141C30.0863 0.119141 0.939941 29.2655 0.939941 65.2192C0.939941 101.173 30.0863 130.319 66.0401 130.319Z" fill="#DC3684"/>
<g id="Group 26">
<path id="Vector_2" d="M82.7242 91C81.0224 81.7981 80.3132 79.122 80.8238 69.7699C81.0885 64.8497 81.7693 57.338 84.7475 51.6478C86.8086 48.3708 88 44.5023 88 40.3521C88 28.5587 78.3751 19 66.5 19C54.6249 19 45 28.5587 45 40.3521C45 44.23 46.0399 47.8545 47.8552 50.9906C48.5076 52.399 49.2452 54.108 49.6044 55.0658C52.6489 63.2911 51.6371 70.0891 51.1549 78.8496C51.1549 78.8496 50.5877 84.6431 48.7535 90.8684L82.7242 91Z" fill="white"/>
<path id="Vector_3" d="M83.2068 105H47.7933C44.5973 105 42 102.314 42 99C42 95.6953 44.5973 93 47.7933 93H83.2068C86.4028 93 89 95.6857 89 99C89 102.314 86.4028 105 83.2068 105Z" fill="white"/>
</g>
</g>
</svg>
