<svg width="47" height="86" viewBox="0 0 47 86" fill="none" xmlns="http://www.w3.org/2000/svg">
<path d="M40.7242 72C39.0224 62.7981 38.3132 60.122 38.8238 50.7699C39.0885 45.8497 39.7693 38.338 42.7475 32.6478C44.8086 29.3708 46 25.5023 46 21.3521C46 9.55865 36.3751 0 24.5 0C12.6249 0 3 9.55865 3 21.3521C3 25.23 4.03992 28.8545 5.85523 31.9906C6.5076 33.399 7.24516 35.108 7.60444 36.0658C10.6489 44.2911 9.6371 51.0891 9.15491 59.8496C9.15491 59.8496 8.58771 65.6431 6.75349 71.8684L40.7242 72Z" fill="white"/>
<path d="M41.2068 86H5.79329C2.59733 86 0 83.3143 0 80C0 76.6953 2.59733 74 5.79329 74H41.2068C44.4028 74 47 76.6857 47 80C47 83.3143 44.4028 86 41.2068 86Z" fill="white"/>
</svg>
