<svg width="282" height="283" viewBox="0 0 282 283" fill="none" xmlns="http://www.w3.org/2000/svg">
<path d="M138.54 21.1494C144.35 21.1494 149.06 16.4394 149.06 10.6294C149.06 4.81936 144.35 0.109375 138.54 0.109375C132.73 0.109375 128.02 4.81936 128.02 10.6294C128.02 16.4394 132.73 21.1494 138.54 21.1494Z" fill="white"/>
<path d="M21.3501 255.542L79.9451 132.182L138.54 8.82227L260.76 261.422" stroke="white" stroke-miterlimit="10"/>
<path d="M260.76 282.07C272.165 282.07 281.41 272.824 281.41 261.42C281.41 250.015 272.165 240.77 260.76 240.77C249.355 240.77 240.11 250.015 240.11 261.42C240.11 272.824 249.355 282.07 260.76 282.07Z" fill="#DC3684"/>
<path d="M21.3499 282.07C32.7546 282.07 41.9999 272.824 41.9999 261.42C41.9999 250.015 32.7546 240.77 21.3499 240.77C9.94523 240.77 0.699951 250.015 0.699951 261.42C0.699951 272.824 9.94523 282.07 21.3499 282.07Z" fill="#DC3684"/>
</svg>
